<?xml version="1.0" encoding="utf-8"?>
<!-- Generator: Adobe Illustrator 27.0.0, SVG Export Plug-In . SVG Version: 6.00 Build 0)  -->
<svg version="1.1" id="Layer_1" xmlns="http://www.w3.org/2000/svg" xmlns:xlink="http://www.w3.org/1999/xlink" x="0px" y="0px"
	 viewBox="0 0 157 48" style="enable-background:new 0 0 157 48;" xml:space="preserve">
<style type="text/css">
	.st0{fill:#F7DF1E;}
	.st1{fill:#FFFFFF;}
</style>
<path class="st0" d="M157,0H0v48h157V0z"/>
<path d="M47.3,19.2v6.7c0,1-0.3,1.8-0.9,2.4c-0.6,0.6-1.4,0.8-2.4,0.8c-1,0-1.9-0.3-2.5-0.9c-0.6-0.6-0.9-1.4-0.9-2.5H43
	c0,0.4,0.1,0.7,0.3,0.9c0.2,0.2,0.4,0.3,0.7,0.3c0.3,0,0.5-0.1,0.7-0.3c0.2-0.2,0.2-0.5,0.2-0.8v-6.7H47.3z M55.3,27.3h-3.7L51.1,29
	h-2.5l3.6-9.8h2.8l3.6,9.8h-2.5L55.3,27.3z M54.7,25.4l-1.2-3.6l-1.2,3.6H54.7z M68.8,19.2L65.3,29h-3l-3.5-9.8h2.5l2.4,7.4l2.5-7.4
	H68.8z M75.9,27.3h-3.7L71.6,29h-2.5l3.6-9.8h2.8L79,29h-2.5L75.9,27.3z M75.3,25.4L74,21.8l-1.2,3.6H75.3z M83.6,29.1
	c-0.7,0-1.4-0.1-1.9-0.4c-0.6-0.2-1-0.6-1.4-1c-0.3-0.5-0.5-1-0.5-1.7h2.5c0,0.4,0.2,0.6,0.4,0.8c0.2,0.2,0.5,0.3,0.8,0.3
	c0.4,0,0.6-0.1,0.8-0.2c0.2-0.2,0.3-0.4,0.3-0.7c0-0.2-0.1-0.4-0.3-0.6c-0.2-0.2-0.4-0.3-0.6-0.4c-0.2-0.1-0.6-0.2-1-0.3
	c-0.6-0.2-1.2-0.4-1.6-0.6c-0.4-0.2-0.7-0.5-1-0.9s-0.4-0.9-0.4-1.5c0-0.9,0.3-1.6,1-2.1c0.7-0.5,1.5-0.8,2.6-0.8
	c1.1,0,2,0.3,2.6,0.8c0.7,0.5,1,1.2,1.1,2.2h-2.6c0-0.3-0.1-0.6-0.3-0.7C83.9,21,83.7,21,83.3,21c-0.3,0-0.5,0.1-0.7,0.2
	c-0.2,0.1-0.3,0.4-0.3,0.7c0,0.3,0.1,0.6,0.4,0.7c0.3,0.2,0.8,0.4,1.4,0.6c0.6,0.2,1.1,0.4,1.5,0.6c0.4,0.2,0.7,0.5,1,0.9
	c0.3,0.4,0.4,0.9,0.4,1.4c0,0.6-0.1,1.1-0.4,1.5c-0.3,0.5-0.7,0.8-1.2,1.1C85,29,84.4,29.1,83.6,29.1z M88.3,24.1
	c0-1,0.2-1.8,0.6-2.6c0.4-0.8,1-1.4,1.8-1.8c0.8-0.4,1.6-0.6,2.6-0.6c1.2,0,2.2,0.3,3,0.9c0.8,0.6,1.4,1.5,1.7,2.5h-2.6
	c-0.2-0.4-0.5-0.7-0.8-0.9c-0.4-0.2-0.8-0.3-1.2-0.3c-0.7,0-1.3,0.3-1.8,0.8c-0.5,0.5-0.7,1.2-0.7,2.1s0.2,1.5,0.7,2.1
	c0.5,0.5,1.1,0.8,1.8,0.8c0.5,0,0.9-0.1,1.2-0.3c0.4-0.2,0.6-0.5,0.8-0.9h2.6c-0.3,1.1-0.8,1.9-1.7,2.5c-0.8,0.6-1.8,0.9-3,0.9
	c-1,0-1.8-0.2-2.6-0.6c-0.7-0.4-1.3-1-1.8-1.8C88.5,25.9,88.3,25,88.3,24.1z M104.4,29l-2-3.7h-0.6V29h-2.4v-9.8h4
	c0.8,0,1.4,0.1,2,0.4c0.6,0.3,1,0.6,1.2,1.1c0.3,0.5,0.4,1,0.4,1.6c0,0.7-0.2,1.2-0.6,1.8c-0.4,0.5-0.9,0.9-1.6,1.1l2.3,3.9H104.4z
	 M101.7,23.6h1.5c0.4,0,0.8-0.1,1-0.3c0.2-0.2,0.3-0.5,0.3-0.9c0-0.4-0.1-0.7-0.3-0.9c-0.2-0.2-0.5-0.3-1-0.3h-1.5V23.6z
	 M110.9,19.2V29h-2.4v-9.8H110.9z M120.1,22.3c0,0.6-0.1,1.1-0.4,1.6c-0.3,0.5-0.7,0.8-1.2,1.1c-0.5,0.3-1.2,0.4-2,0.4H115V29h-2.4
	v-9.8h3.9c0.8,0,1.4,0.1,2,0.4c0.5,0.3,0.9,0.6,1.2,1.1C120,21.2,120.1,21.7,120.1,22.3z M116.3,23.6c0.5,0,0.8-0.1,1-0.3
	c0.2-0.2,0.3-0.5,0.3-0.9s-0.1-0.7-0.3-0.9c-0.2-0.2-0.6-0.3-1-0.3H115v2.5H116.3z M128.4,19.2v1.9h-2.6V29h-2.4v-7.9h-2.6v-1.9
	H128.4z"/>
<path class="st1" d="M21.2,9.5H19C11,9.5,4.5,16,4.5,24S11,38.5,19,38.5h2.2c8,0,14.5-6.5,14.5-14.5S29.3,9.5,21.2,9.5z"/>
<path class="st0" d="M25.3,17.4H15c-0.8,0-1.4,0.6-1.4,1.4v10.3c0,0.8,0.6,1.4,1.4,1.4h10.3c0.8,0,1.4-0.6,1.4-1.4V18.8
	C26.7,18.1,26.1,17.4,25.3,17.4z M20.7,27.7c0,1.3-0.8,1.9-1.8,1.9c-1,0-1.6-0.5-1.9-1.1l1-0.6c0.2,0.3,0.4,0.6,0.8,0.6
	c0.4,0,0.7-0.2,0.7-0.8v-4.2h1.2V27.7z M23.7,29.5c-1.1,0-1.9-0.5-2.2-1.3l1-0.6c0.3,0.4,0.6,0.8,1.2,0.8c0.5,0,0.8-0.3,0.8-0.6
	c0-0.4-0.3-0.6-0.9-0.8l-0.3-0.1c-0.9-0.4-1.5-0.9-1.5-1.9c0-0.9,0.7-1.6,1.8-1.6c0.8,0,1.3,0.3,1.8,1l-1,0.6
	c-0.2-0.4-0.4-0.5-0.8-0.5c-0.4,0-0.6,0.2-0.6,0.5c0,0.4,0.2,0.5,0.8,0.8l0.3,0.1c1,0.4,1.6,0.9,1.6,1.9
	C25.7,28.9,24.8,29.5,23.7,29.5z"/>
<path d="M19.5,23.5h1.2v4.2c0,1.3-0.8,1.9-1.9,1.9c-1,0-1.5-0.5-1.8-1.1l1-0.6c0.2,0.3,0.4,0.6,0.8,0.6c0.4,0,0.7-0.2,0.7-0.8V23.5z
	"/>
<path d="M25.7,27.8c0,1.1-0.9,1.7-2,1.7c-1.1,0-1.9-0.5-2.2-1.3l1-0.6c0.3,0.4,0.6,0.8,1.2,0.8c0.5,0,0.8-0.2,0.8-0.6
	c0-0.4-0.3-0.6-0.9-0.8l-0.3-0.1c-0.9-0.4-1.5-0.9-1.5-1.9c0-0.9,0.7-1.6,1.8-1.6c0.8,0,1.3,0.3,1.8,1l-1,0.6
	c-0.2-0.4-0.4-0.5-0.8-0.5c-0.4,0-0.6,0.2-0.6,0.5c0,0.4,0.2,0.5,0.8,0.8l0.3,0.1C25.1,26.3,25.7,26.8,25.7,27.8z"/>
</svg>
