<?xml version="1.0" encoding="utf-8"?>
<!-- Generator: Adobe Illustrator 27.0.0, SVG Export Plug-In . SVG Version: 6.00 Build 0)  -->
<svg version="1.1" id="Layer_1" xmlns="http://www.w3.org/2000/svg" xmlns:xlink="http://www.w3.org/1999/xlink" x="0px" y="0px"
	 viewBox="0 0 131 48" style="enable-background:new 0 0 131 48;" xml:space="preserve">
<style type="text/css">
	.st0{fill:#1F2229;}
	.st1{fill:#61DBFB;}
	.st2{fill:#FFFFFF;}
</style>
<path class="st0" d="M131,0H0v48h131V0z"/>
<path class="st1" d="M46,29l-2-3.7h-0.6V29H41v-9.8h4c0.8,0,1.4,0.1,2,0.4c0.6,0.3,1,0.6,1.2,1.1c0.3,0.5,0.4,1,0.4,1.6
	c0,0.7-0.2,1.2-0.6,1.8c-0.4,0.5-0.9,0.9-1.6,1.1l2.3,3.9H46z M43.4,23.6h1.5c0.4,0,0.8-0.1,1-0.3c0.2-0.2,0.3-0.5,0.3-0.9
	c0-0.4-0.1-0.7-0.3-0.9c-0.2-0.2-0.5-0.3-1-0.3h-1.5V23.6z M52.6,21.1v2h3.2v1.8h-3.2v2.2h3.6V29h-6v-9.8h6v1.9H52.6z M63.9,27.3
	h-3.7L59.6,29h-2.5l3.6-9.8h2.8L67,29h-2.5L63.9,27.3z M63.2,25.4L62,21.8l-1.2,3.6H63.2z M67.7,24.1c0-1,0.2-1.8,0.6-2.6
	c0.4-0.8,1-1.4,1.8-1.8c0.8-0.4,1.6-0.6,2.6-0.6c1.2,0,2.2,0.3,3,0.9c0.8,0.6,1.4,1.5,1.7,2.5h-2.6c-0.2-0.4-0.5-0.7-0.8-0.9
	c-0.4-0.2-0.8-0.3-1.2-0.3c-0.7,0-1.3,0.3-1.8,0.8c-0.5,0.5-0.7,1.2-0.7,2.1s0.2,1.5,0.7,2.1c0.5,0.5,1.1,0.8,1.8,0.8
	c0.5,0,0.9-0.1,1.2-0.3c0.4-0.2,0.6-0.5,0.8-0.9h2.6c-0.3,1.1-0.8,1.9-1.7,2.5c-0.8,0.6-1.8,0.9-3,0.9c-1,0-1.8-0.2-2.6-0.6
	c-0.7-0.4-1.3-1-1.8-1.8C67.9,25.9,67.7,25,67.7,24.1z M85.8,19.2v1.9h-2.6V29h-2.4v-7.9h-2.6v-1.9H85.8z M93.2,19.2v6.7
	c0,1-0.3,1.8-0.9,2.4c-0.6,0.6-1.4,0.8-2.4,0.8c-1,0-1.9-0.3-2.5-0.9c-0.6-0.6-0.9-1.4-0.9-2.5h2.4c0,0.4,0.1,0.7,0.3,0.9
	c0.2,0.2,0.4,0.3,0.7,0.3c0.3,0,0.5-0.1,0.7-0.3c0.2-0.2,0.2-0.5,0.2-0.8v-6.7H93.2z M98.6,29.1c-0.7,0-1.4-0.1-1.9-0.4
	c-0.6-0.2-1-0.6-1.4-1c-0.3-0.5-0.5-1-0.5-1.7h2.5c0,0.4,0.2,0.6,0.4,0.8c0.2,0.2,0.5,0.3,0.8,0.3c0.4,0,0.6-0.1,0.8-0.2
	c0.2-0.2,0.3-0.4,0.3-0.7c0-0.2-0.1-0.4-0.3-0.6c-0.2-0.2-0.4-0.3-0.6-0.4c-0.2-0.1-0.6-0.2-1-0.3c-0.6-0.2-1.2-0.4-1.6-0.6
	c-0.4-0.2-0.7-0.5-1-0.9c-0.3-0.4-0.4-0.9-0.4-1.5c0-0.9,0.3-1.6,1-2.1c0.7-0.5,1.5-0.8,2.6-0.8c1.1,0,2,0.3,2.6,0.8
	c0.7,0.5,1,1.2,1.1,2.2h-2.6c0-0.3-0.1-0.6-0.3-0.7C98.9,21,98.7,21,98.3,21c-0.3,0-0.5,0.1-0.7,0.2c-0.2,0.1-0.3,0.4-0.3,0.7
	c0,0.3,0.1,0.6,0.4,0.7c0.3,0.2,0.8,0.4,1.4,0.6c0.6,0.2,1.1,0.4,1.5,0.6c0.4,0.2,0.7,0.5,1,0.9c0.3,0.4,0.4,0.9,0.4,1.4
	c0,0.6-0.1,1.1-0.4,1.5c-0.3,0.5-0.7,0.8-1.2,1.1C100,29,99.4,29.1,98.6,29.1z"/>
<path class="st2" d="M21.2,9.5H19C11,9.5,4.5,16,4.5,24S11,38.5,19,38.5h2.2c8,0,14.5-6.5,14.5-14.5S29.3,9.5,21.2,9.5z"/>
<path class="st1" d="M24.9,21.7c-0.2-0.1-0.3-0.1-0.5-0.1c0-0.1,0-0.2,0.1-0.3c0.4-1.7,0.1-3.1-0.7-3.6c-0.8-0.4-2,0-3.3,1.1
	c-0.1,0.1-0.2,0.2-0.4,0.3C20,19,20,18.9,19.9,18.8c-1.3-1.2-2.7-1.7-3.5-1.2c-0.8,0.4-1,1.8-0.7,3.4c0,0.2,0.1,0.3,0.1,0.5
	c-0.2,0.1-0.4,0.1-0.5,0.2c-1.6,0.5-2.7,1.4-2.7,2.3c0,0.9,1.2,1.8,2.8,2.4c0.1,0,0.3,0.1,0.4,0.1c0,0.2-0.1,0.3-0.1,0.5
	c-0.3,1.6-0.1,2.9,0.7,3.4c0.8,0.5,2.1,0,3.4-1.1c0.1-0.1,0.2-0.2,0.3-0.3c0.1,0.1,0.3,0.2,0.4,0.4c1.3,1.1,2.5,1.5,3.3,1.1
	c0.8-0.5,1-1.8,0.7-3.5c0-0.1-0.1-0.3-0.1-0.4c0.1,0,0.2-0.1,0.3-0.1c1.7-0.6,2.9-1.5,2.9-2.4C27.6,23.1,26.5,22.2,24.9,21.7z
	 M20.9,19.2c1.1-0.9,2.1-1.3,2.6-1.1c0.5,0.3,0.7,1.4,0.4,2.9c0,0.1,0,0.2-0.1,0.3c-0.7-0.1-1.3-0.3-2-0.3c-0.4-0.5-0.8-1.1-1.2-1.6
	C20.7,19.4,20.8,19.3,20.9,19.2z M17.5,25.5c0.1,0.3,0.3,0.5,0.5,0.8c-0.5,0-0.9-0.1-1.4-0.2c0.1-0.4,0.3-0.9,0.5-1.3
	C17.2,25,17.4,25.3,17.5,25.5z M16.6,22c0.4-0.1,0.9-0.2,1.3-0.2c-0.2,0.2-0.3,0.5-0.5,0.7c-0.1,0.2-0.3,0.5-0.4,0.8
	C16.9,22.8,16.8,22.4,16.6,22z M17.4,24c0.2-0.4,0.4-0.8,0.6-1.2c0.2-0.4,0.5-0.8,0.7-1.1c0.4,0,0.9,0,1.3,0c0.5,0,0.9,0,1.3,0
	c0.2,0.4,0.5,0.7,0.7,1.1c0.2,0.4,0.4,0.8,0.6,1.2c-0.2,0.4-0.4,0.8-0.6,1.2c-0.2,0.4-0.5,0.8-0.7,1.1c-0.4,0-0.9,0-1.4,0
	c-0.5,0-0.9,0-1.3,0c-0.3-0.4-0.5-0.8-0.7-1.1C17.8,24.8,17.6,24.4,17.4,24z M22.7,25.5c0.1-0.3,0.3-0.5,0.4-0.8
	c0.2,0.4,0.4,0.9,0.5,1.3c-0.5,0.1-0.9,0.2-1.4,0.2C22.4,26,22.6,25.8,22.7,25.5z M23.1,23.3c-0.1-0.3-0.3-0.5-0.4-0.8
	c-0.1-0.2-0.3-0.5-0.4-0.7c0.5,0.1,0.9,0.1,1.3,0.2C23.5,22.4,23.3,22.8,23.1,23.3z M20.1,20c0.3,0.3,0.6,0.7,0.9,1
	c-0.6,0-1.2,0-1.7,0C19.5,20.6,19.8,20.3,20.1,20z M16.7,18.2c0.5-0.3,1.6,0.1,2.7,1.1c0.1,0.1,0.1,0.1,0.2,0.2
	c-0.5,0.5-0.9,1-1.3,1.6c-0.7,0.1-1.3,0.2-2,0.3c0-0.1-0.1-0.3-0.1-0.5C16.1,19.5,16.3,18.4,16.7,18.2z M16,25.9
	c-0.1,0-0.2-0.1-0.4-0.1c-0.6-0.2-1.3-0.5-1.8-0.9c-0.3-0.2-0.5-0.5-0.6-0.9c0-0.5,0.9-1.2,2.3-1.7c0.2-0.1,0.3-0.1,0.5-0.2
	c0.2,0.6,0.4,1.3,0.7,1.9C16.5,24.6,16.2,25.2,16,25.9z M19.4,28.8c-0.5,0.4-1,0.8-1.7,1c-0.3,0.2-0.7,0.2-1,0
	c-0.5-0.3-0.7-1.3-0.4-2.7c0-0.2,0.1-0.3,0.1-0.5c0.7,0.1,1.3,0.2,2,0.3c0.4,0.5,0.8,1.1,1.3,1.6C19.6,28.6,19.5,28.7,19.4,28.8z
	 M20.1,28.1c-0.3-0.3-0.6-0.7-0.9-1.1c0.3,0,0.6,0,0.9,0c0.3,0,0.6,0,0.9,0C20.7,27.4,20.5,27.7,20.1,28.1z M24,28.9
	c0,0.4-0.2,0.7-0.5,0.9c-0.5,0.3-1.5-0.1-2.5-1c-0.1-0.1-0.2-0.2-0.4-0.3c0.4-0.5,0.9-1,1.2-1.6c0.7-0.1,1.3-0.2,2-0.3
	c0,0.1,0.1,0.2,0.1,0.4C24,27.6,24.1,28.3,24,28.9z M24.5,25.8c-0.1,0-0.2,0.1-0.2,0.1c-0.2-0.6-0.5-1.3-0.7-1.9
	c0.3-0.6,0.5-1.2,0.7-1.8c0.2,0,0.3,0.1,0.4,0.1C26,22.8,27,23.4,27,24C27,24.6,26,25.3,24.5,25.8z M20.1,25.3
	c0.7,0,1.3-0.6,1.3-1.3c0-0.7-0.6-1.3-1.3-1.3c-0.7,0-1.3,0.6-1.3,1.3C18.8,24.7,19.4,25.3,20.1,25.3z"/>
</svg>
