<?xml version="1.0" encoding="utf-8"?>
<!-- Generator: Adobe Illustrator 27.0.0, SVG Export Plug-In . SVG Version: 6.00 Build 0)  -->
<svg version="1.1" id="Layer_1" xmlns="http://www.w3.org/2000/svg" xmlns:xlink="http://www.w3.org/1999/xlink" x="0px" y="0px"
	 viewBox="0 0 165 48" style="enable-background:new 0 0 165 48;" xml:space="preserve">
<style type="text/css">
	.st0{fill:#38BDF8;}
	.st1{fill:#FFFFFF;}
	.st2{fill-rule:evenodd;clip-rule:evenodd;fill:#38BDF8;}
</style>
<path class="st0" d="M165,0H0v48h165V0z"/>
<path class="st1" d="M48,19.2v1.9h-2.6V29H43v-7.9h-2.6v-1.9H48z M55.3,27.3h-3.7L51.1,29h-2.5l3.6-9.8h2.8l3.6,9.8h-2.5L55.3,27.3z
	 M54.7,25.4l-1.2-3.6l-1.2,3.6H54.7z M61.9,19.2V29h-2.4v-9.8H61.9z M66.1,27.2h3.1V29h-5.5v-9.8h2.4V27.2z M83.9,19.2L81.3,29h-2.9
	l-1.6-6.5L75.2,29h-2.9l-2.5-9.8h2.6l1.4,7.2l1.8-7.2h2.6l1.7,7.2l1.4-7.2H83.9z M87.5,19.2V29h-2.4v-9.8H87.5z M98,29h-2.4l-4-6.1
	V29h-2.4v-9.8h2.4l4,6.1v-6.1H98V29z M103.4,19.2c1,0,1.9,0.2,2.7,0.6c0.8,0.4,1.4,1,1.8,1.7c0.4,0.7,0.6,1.6,0.6,2.6
	c0,1-0.2,1.8-0.6,2.6c-0.4,0.7-1,1.3-1.8,1.7c-0.8,0.4-1.7,0.6-2.7,0.6h-3.7v-9.8H103.4z M103.3,26.9c0.9,0,1.6-0.2,2.1-0.7
	c0.5-0.5,0.8-1.2,0.8-2.1s-0.3-1.6-0.8-2.1c-0.5-0.5-1.2-0.8-2.1-0.8h-1.1v5.7H103.3z M109.5,24.1c0-1,0.2-1.8,0.6-2.6
	c0.4-0.8,1-1.4,1.8-1.8c0.8-0.4,1.6-0.6,2.6-0.6c1.2,0,2.2,0.3,3,0.9c0.8,0.6,1.4,1.5,1.7,2.5h-2.6c-0.2-0.4-0.5-0.7-0.8-0.9
	c-0.4-0.2-0.8-0.3-1.2-0.3c-0.7,0-1.3,0.3-1.8,0.8c-0.5,0.5-0.7,1.2-0.7,2.1s0.2,1.5,0.7,2.1c0.5,0.5,1.1,0.8,1.8,0.8
	c0.5,0,0.9-0.1,1.2-0.3c0.4-0.2,0.6-0.5,0.8-0.9h2.6c-0.3,1.1-0.8,1.9-1.7,2.5c-0.8,0.6-1.8,0.9-3,0.9c-1,0-1.8-0.2-2.6-0.6
	c-0.7-0.4-1.3-1-1.8-1.8C109.7,25.9,109.5,25,109.5,24.1z M124.1,29.1c-0.7,0-1.4-0.1-1.9-0.4c-0.6-0.2-1-0.6-1.4-1
	c-0.3-0.5-0.5-1-0.5-1.7h2.5c0,0.4,0.2,0.6,0.4,0.8c0.2,0.2,0.5,0.3,0.8,0.3c0.4,0,0.6-0.1,0.8-0.2c0.2-0.2,0.3-0.4,0.3-0.7
	c0-0.2-0.1-0.4-0.3-0.6c-0.2-0.2-0.4-0.3-0.6-0.4c-0.2-0.1-0.6-0.2-1-0.3c-0.6-0.2-1.2-0.4-1.6-0.6c-0.4-0.2-0.7-0.5-1-0.9
	c-0.3-0.4-0.4-0.9-0.4-1.5c0-0.9,0.3-1.6,1-2.1c0.7-0.5,1.5-0.8,2.6-0.8c1.1,0,2,0.3,2.6,0.8c0.7,0.5,1,1.2,1.1,2.2H125
	c0-0.3-0.1-0.6-0.3-0.7c-0.2-0.2-0.5-0.3-0.8-0.3c-0.3,0-0.5,0.1-0.7,0.2c-0.2,0.1-0.3,0.4-0.3,0.7c0,0.3,0.1,0.6,0.4,0.7
	c0.3,0.2,0.8,0.4,1.4,0.6c0.6,0.2,1.1,0.4,1.5,0.6c0.4,0.2,0.7,0.5,1,0.9c0.3,0.4,0.4,0.9,0.4,1.4c0,0.6-0.1,1.1-0.4,1.5
	c-0.3,0.5-0.7,0.8-1.2,1.1C125.5,29,124.9,29.1,124.1,29.1z M132.7,29.1c-0.7,0-1.4-0.1-1.9-0.4c-0.6-0.2-1-0.6-1.4-1
	c-0.3-0.5-0.5-1-0.5-1.7h2.5c0,0.4,0.2,0.6,0.4,0.8c0.2,0.2,0.5,0.3,0.8,0.3c0.4,0,0.6-0.1,0.8-0.2c0.2-0.2,0.3-0.4,0.3-0.7
	c0-0.2-0.1-0.4-0.3-0.6c-0.2-0.2-0.4-0.3-0.6-0.4c-0.2-0.1-0.6-0.2-1-0.3c-0.6-0.2-1.2-0.4-1.6-0.6c-0.4-0.2-0.7-0.5-1-0.9
	c-0.3-0.4-0.4-0.9-0.4-1.5c0-0.9,0.3-1.6,1-2.1c0.7-0.5,1.5-0.8,2.6-0.8c1.1,0,2,0.3,2.6,0.8c0.7,0.5,1,1.2,1.1,2.2h-2.6
	c0-0.3-0.1-0.6-0.4-0.7c-0.2-0.2-0.5-0.3-0.8-0.3c-0.3,0-0.5,0.1-0.7,0.2c-0.2,0.1-0.3,0.4-0.3,0.7c0,0.3,0.1,0.6,0.4,0.7
	c0.3,0.2,0.8,0.4,1.4,0.6c0.6,0.2,1.1,0.4,1.5,0.6c0.4,0.2,0.7,0.5,1,0.9c0.3,0.4,0.4,0.9,0.4,1.4c0,0.6-0.1,1.1-0.4,1.5
	c-0.3,0.5-0.7,0.8-1.2,1.1C134.1,29,133.5,29.1,132.7,29.1z"/>
<path class="st1" d="M21.2,9.5H19C11,9.5,4.5,16,4.5,24S11,38.5,19,38.5h2.2c8,0,14.5-6.5,14.5-14.5S29.3,9.5,21.2,9.5z"/>
<path class="st2" d="M16.4,22.5c0.5-2,1.8-3,3.8-3c3,0,3.4,2.2,4.9,2.6c1,0.3,1.9-0.1,2.6-1.1c-0.5,2-1.8,3-3.8,3
	c-3,0-3.4-2.2-4.9-2.6C18,21.1,17.1,21.5,16.4,22.5z M12.6,27c0.5-2,1.8-3,3.8-3c3,0,3.4,2.2,4.9,2.6c1,0.3,1.9-0.1,2.6-1.1
	c-0.5,2-1.8,3-3.8,3c-3,0-3.4-2.2-4.9-2.6C14.2,25.6,13.4,26,12.6,27z"/>
</svg>
